<svg viewBox="0 0 147 17" fill="none" xmlns="http://www.w3.org/2000/svg">
  <path d="M10.1953 10.1797C10.2031 10.1797 10.207 10.1797 10.207 10.1797H13.4062C13.2969 9.38281 12.9375 8.72266 12.3281 8.19922C11.7188 7.66016 11.0078 7.39062 10.1953 7.39062H3.25781C3.125 7.39062 3.01562 7.34375 2.92969 7.25C2.83594 7.16406 2.78906 7.05469 2.78906 6.92188V3.37109H12.6211V0.617188H2.78906C2 0.734375 1.33984 1.09766 0.808594 1.70703C0.269531 2.31641 0 3.02734 0 3.83984V6.92188C0 7.82031 0.316406 8.58594 0.949219 9.21875C1.58984 9.85938 2.35938 10.1797 3.25781 10.1797H10.1953ZM10.6641 13.0391V13.7539C10.6641 13.8789 10.6172 13.9883 10.5234 14.082C10.4297 14.168 10.3203 14.2109 10.1953 14.2109H0.667969V17H10.1953C11.0938 17 11.8594 16.6836 12.4922 16.0508C13.1328 15.4102 13.4531 14.6445 13.4531 13.7539V13.0391H10.6641ZM25.9453 3.37109H38.5547V0.582031H25.9453V3.37109ZM30.8555 17H33.6445V6.88672H30.8555V17ZM51 17H53.8008V0.582031H51V17ZM64.8398 14.8672H61.2422L55.1953 7.36719H58.7344C59.9766 7.33594 60.8164 7.10547 61.2539 6.67578C61.5273 6.41016 61.6641 6.01562 61.6641 5.49219C61.6641 4.75 61.4844 4.21094 61.125 3.875C60.7734 3.53906 60.3008 3.37109 59.707 3.37109H59.6367H56.4258V0.582031H59.6016C60.9609 0.535156 62.1094 0.957031 63.0469 1.84766C63.9844 2.73047 64.4531 3.94531 64.4531 5.49219C64.4531 6.78906 64.0391 7.84375 63.2109 8.65625C62.6172 9.25 61.832 9.66797 60.8555 9.91016L64.8398 14.8672ZM74.8594 10.1914H82.4531V7.40234H74.8594V10.1914ZM74.8594 17H87.8555V14.2109H74.8594V17ZM74.8594 3.35938H87.8555V0.570312H74.8594V3.35938ZM108.75 0.582031L100.312 17H103.418L108.75 6.07812L111.574 11.8906H109.758V14.6797H112.945L114.07 17H117.176L108.75 0.582031ZM142.945 0.582031L138.059 6.59375L133.184 0.582031H129.586L136.266 8.79688L129.586 17H133.184L146.531 0.582031H142.945ZM140.812 14.3867L142.934 17H146.531L142.605 12.1719L140.812 14.3867Z" fill="currentColor"/>
</svg>
